<svg width="75" height="75" viewBox="0 0 75 75" fill="none" xmlns="http://www.w3.org/2000/svg">
<path d="M37.5 75C58.2107 75 75 58.2107 75 37.5C75 16.7893 58.2107 0 37.5 0C16.7893 0 0 16.7893 0 37.5C0 58.2107 16.7893 75 37.5 75Z" fill="#1C8575"/>
<path d="M27.918 54.4164L47.2003 73.6987C63.1703 69.44 75 54.8896 75 37.5C75 37.1451 75 36.7902 75 36.4353L59.858 22.4763L27.918 54.4164Z" fill="#135F53"/>
<path d="M38.4464 45.8991C40.1026 47.5552 40.1026 50.3944 38.4464 52.0505L35.0158 55.4811C33.3597 57.1373 30.5206 57.1373 28.8644 55.4811L13.8407 40.3391C12.1846 38.683 12.1846 35.8439 13.8407 34.1877L17.2713 30.7571C18.9275 29.101 21.7666 29.101 23.4228 30.7571L38.4464 45.8991Z" fill="white"/>
<path d="M51.5774 19.7555C53.2336 18.0994 56.0727 18.0994 57.7288 19.7555L61.1594 23.1861C62.8156 24.8423 62.8156 27.6814 61.1594 29.3376L35.1342 55.2445C33.478 56.9007 30.6389 56.9007 28.9828 55.2445L25.5522 51.8139C23.896 50.1577 23.896 47.3186 25.5522 45.6625L51.5774 19.7555Z" fill="white"/>
</svg>
