<svg width="75" height="75" viewBox="0 0 75 75" fill="none" xmlns="http://www.w3.org/2000/svg">
<g clip-path="url(#clip0)">
<path d="M37.5 75C58.2107 75 75 58.2107 75 37.5C75 16.7893 58.2107 0 37.5 0C16.7893 0 0 16.7893 0 37.5C0 58.2107 16.7893 75 37.5 75Z" fill="#1C8575"/>
<path d="M74.4465 43.9438L47.6904 17.1875L17.1875 57.8126L34.2317 74.8568C35.3091 74.9497 36.3986 75.0001 37.5 75.0001C56.0133 75.0001 71.3914 61.5838 74.4465 43.9438Z" fill="#135F53"/>
<path d="M47.6901 17.1876H32.4388L30.8506 37.5065L32.4388 57.8126H47.6901V17.1876Z" fill="#D6E6FD"/>
<path d="M32.439 17.187H17.187V57.8115H32.439V17.187Z" fill="#F4F4FF"/>
<path d="M27.1356 51.561H20.9839V53.9414H27.1356V51.561Z" fill="#A1B8D8"/>
<path d="M29.666 46.5H20.9839V48.8804H29.666V46.5Z" fill="#A1B8D8"/>
<path d="M37.6214 21.0585H32.4391L31.645 22.2487L32.4391 23.4388H37.6214V21.0585Z" fill="#6C819F"/>
<path d="M43.8946 26.1196H32.4391L31.645 27.3098L32.4391 28.5H43.8946V26.1196Z" fill="#6C819F"/>
<path d="M43.8946 31.1807H32.4391L31.645 32.3708L32.4391 33.561H43.8946V31.1807Z" fill="#6C819F"/>
<path d="M43.8946 36.2417H32.4391L31.645 37.4319L32.4391 38.6221H43.8946V36.2417Z" fill="#6C819F"/>
<path d="M32.439 31.1807H20.9839V33.561H32.439V31.1807Z" fill="#A1B8D8"/>
<path d="M32.439 36.2417H20.9839V38.6221H32.439V36.2417Z" fill="#A1B8D8"/>
<path d="M32.439 21.0586H27.2563V23.439H32.439V21.0586Z" fill="#A1B8D8"/>
<path d="M32.439 26.1196H20.9839V28.5H32.439V26.1196Z" fill="#A1B8D8"/>
<path d="M38.7329 52.7629L42.3052 52.7536L57.8125 37.2465L56.031 35.465L47.3772 42.3004L38.7329 52.7629Z" fill="#467BCA"/>
<path d="M54.2309 33.665L38.7236 49.1723L38.7329 52.7629L56.0309 35.465L54.2309 33.665Z" fill="#68B7EA"/>
</g>
<defs>
<clipPath id="clip0">
<rect width="75" height="75" fill="white"/>
</clipPath>
</defs>
</svg>
