<svg width="512" height="512" viewBox="0 0 512 512" fill="none" xmlns="http://www.w3.org/2000/svg">
<path d="M256 512C397.385 512 512 397.385 512 256C512 114.615 397.385 0 256 0C114.615 0 0 114.615 0 256C0 397.385 114.615 512 256 512Z" fill="#1C8575"/>
<mask id="mask0" mask-type="alpha" maskUnits="userSpaceOnUse" x="0" y="0" width="512" height="512">
<path d="M256 512C397.385 512 512 397.385 512 256C512 114.615 397.385 0 256 0C114.615 0 0 114.615 0 256C0 397.385 114.615 512 256 512Z" fill="#1C8575"/>
</mask>
<g mask="url(#mask0)">
<path d="M342.5 492L142 298L297.5 344.5L368 153L598 353L465 521.5L342.5 492Z" fill="#135F53" stroke="#135F53"/>
</g>
<path d="M256 211.97C231.423 211.97 211.426 231.968 211.426 256.544C211.426 281.12 231.423 301.118 256 301.118C280.577 301.118 300.574 281.121 300.574 256.544C300.574 231.967 280.577 211.97 256 211.97ZM280.133 253.932L253.388 280.677C251.647 282.418 249.366 283.289 247.085 283.289C244.804 283.289 242.523 282.419 240.782 280.677L231.867 271.762C228.385 268.28 228.385 262.638 231.867 259.156C235.349 255.674 240.991 255.674 244.473 259.156L247.085 261.768L267.526 241.327C271.008 237.845 276.65 237.845 280.132 241.327C283.614 244.809 283.615 250.45 280.133 253.932ZM362.979 153.501C313.634 153.501 262.495 107.76 261.981 107.299C258.586 104.235 253.414 104.235 250.019 107.299C249.505 107.76 198.367 153.501 149.021 153.501C144.094 153.501 140.106 157.488 140.106 162.416V268.585C140.106 352.606 200.342 386.376 252.822 406.417C253.841 406.809 254.92 407 256 407C257.08 407 258.159 406.809 259.178 406.417C311.657 386.376 371.894 352.606 371.894 268.585V162.416C371.893 157.488 367.906 153.501 362.979 153.501ZM256 318.948C221.594 318.948 193.596 290.95 193.596 256.544C193.596 222.138 221.594 194.14 256 194.14C290.406 194.14 318.404 222.138 318.404 256.544C318.404 290.95 290.406 318.948 256 318.948Z" fill="white"/>
</svg>
