<svg width="75" height="75" viewBox="0 0 75 75" fill="none" xmlns="http://www.w3.org/2000/svg">
<path d="M37.4997 0C34.6998 0 31.9724 0.309521 29.3477 0.891357L27.7173 37.4999L29.3477 74.1085C31.9725 74.6903 34.6999 75 37.4997 75C58.2103 75 74.9997 58.2105 74.9997 37.4999C74.9995 16.7893 58.2103 0 37.4997 0Z" fill="#1C8575"/>
<path d="M9.78252 12.2418C3.70576 18.9063 0 27.77 0 37.4998C0 47.2296 3.70591 56.0934 9.78266 62.7581L11.413 37.4998L9.78252 12.2418Z" fill="#1C8575"/>
<path d="M54.8463 28.2861C56.6913 23.1436 54.6186 17.5507 50.1703 14.7651C50.9704 14.8693 51.7713 15.0577 52.5618 15.3411C58.4948 17.4698 61.5789 24.0048 59.4502 29.9377C57.3215 35.871 50.7865 38.9548 44.8535 36.8261C44.0629 36.5425 43.3248 36.1785 42.6411 35.7503C47.8457 36.4281 53.0014 33.4286 54.8463 28.2861Z" fill="#F0F0F0"/>
<path d="M44.6139 13.3555L43.0106 15.4271L40.5455 14.5424L42.02 16.7072L40.417 18.7785L42.9314 18.0452L44.4062 20.2096L44.4853 17.5916L46.9999 16.8582L44.5347 15.9739L44.6139 13.3555Z" fill="#F0F0F0"/>
<path d="M48.9427 20.1053L47.3394 22.1768L44.8741 21.2922L46.3487 23.4569L44.7456 25.5282L47.26 24.7946L48.7348 26.9595L48.8142 24.3414L51.3286 23.6078L48.8633 22.7233L48.9427 20.1053Z" fill="#F0F0F0"/>
<path d="M36.9811 15.8137L35.3778 17.885L32.9126 17.0007L34.3873 19.1653L32.7842 21.2367L35.2984 20.5033L36.7732 22.6679L36.8526 20.0499L39.367 19.3165L36.9019 18.4318L36.9811 15.8137Z" fill="#F0F0F0"/>
<path d="M36.8055 23.5455L35.2023 25.617L32.737 24.7325L34.2118 26.8972L32.6084 28.9685L35.1231 28.2352L36.5978 30.3997L36.677 27.7817L39.1916 27.0483L36.7261 26.1636L36.8055 23.5455Z" fill="#F0F0F0"/>
<path d="M44.1629 26.1853L42.5596 28.2566L40.0944 27.3721L41.5692 29.5369L39.9658 31.608L42.4805 30.8747L43.9552 33.0395L44.0344 30.4212L46.549 29.6879L44.0835 28.8034L44.1629 26.1853Z" fill="#F0F0F0"/>
<path d="M9.78271 12.2418V62.758C14.8921 68.3616 21.6787 72.4082 29.3479 74.1084V0.891357C21.6786 2.59146 14.8922 6.63809 9.78271 12.2418Z" fill="#D80027"/>
<path d="M17.2492 19.7439L13.9736 17.3038V13.8531L17.2492 11.4131H21.8817L25.1573 13.8531V17.3038L21.8817 19.7439H17.2492Z" fill="#F0F0F0"/>
<path d="M19.5655 11.4131H17.2492L13.9736 13.8531V15.5401H19.5655V11.4131Z" fill="#FF9811"/>
<path d="M19.5654 19.7439H21.8816L25.1572 17.3038V15.5435H19.5654V19.7439Z" fill="#FF9811"/>
<path d="M17.2492 63.5867L13.9736 61.1466V57.696L17.2492 55.2559H21.8817L25.1573 57.696V61.1466L21.8817 63.5867H17.2492Z" fill="#F0F0F0"/>
<path d="M19.5655 55.2559H17.2492L13.9736 57.696V59.383H19.5655V55.2559Z" fill="#FF9811"/>
<path d="M19.5654 63.5868H21.8816L25.1572 61.1466V59.3865H19.5654V63.5868Z" fill="#FF9811"/>
<path d="M17.2492 41.6652L13.9736 39.2251V35.7745L17.2492 33.3344H21.8817L25.1573 35.7745V39.2251L21.8817 41.6652H17.2492Z" fill="#73AF00"/>
<path d="M25.2718 47.0338H23.845V45.6072H21.3379L19.5652 43.8345L17.7926 45.6072H15.2855V47.0338H13.8589V49.8871H15.2855V51.3137H17.7924L19.5653 53.0866L21.3379 51.3137H23.845V49.8871H25.2718V47.0338Z" fill="#73AF00"/>
<path d="M25.2718 25.1124H23.845V23.6856H21.3379L19.5652 21.9128L17.7926 23.6856H15.2855V25.1124H13.8589V27.9656H15.2855V29.3922H17.7924L19.5653 31.1652L21.3379 29.3922H23.845V27.9656H25.2718V25.1124Z" fill="#73AF00"/>
<path d="M21.1955 35.8694H17.9346V39.1303H21.1955V35.8694Z" fill="#D80027"/>
<path d="M19.5649 28.1688C20.4654 28.1688 21.1953 27.4389 21.1953 26.5385C21.1953 25.638 20.4654 24.9081 19.5649 24.9081C18.6645 24.9081 17.9346 25.638 17.9346 26.5385C17.9346 27.4389 18.6645 28.1688 19.5649 28.1688Z" fill="#D80027"/>
<path d="M19.5649 50.0916C20.4654 50.0916 21.1953 49.3616 21.1953 48.4612C21.1953 47.5608 20.4654 46.8308 19.5649 46.8308C18.6645 46.8308 17.9346 47.5608 17.9346 48.4612C17.9346 49.3616 18.6645 50.0916 19.5649 50.0916Z" fill="#D80027"/>
</svg>
